<svg xmlns="http://www.w3.org/2000/svg" width="240" height="27" viewBox="0 0 240 27" version="1.1">
  <g stroke="none" stroke-width="1" fill="none" fill-rule="evenodd">
    <g transform="translate(-600.000000, -77.000000)" fill="#1E1E1E">
      <g transform="translate(600.000000, 77.000000)">
        <path d="M0.1 22.7C0.5 22.7 1.1 22.7 1.5 22.7 2.8 22.7 3.8 22.2 3.8 20.2L3.8 0.5 7.9 0.5 7.9 19.9C7.9 25.1 5.1 26.4 2.1 26.4 1.3 26.4 0.8 26.4 0.1 26.4L0.1 22.7M20 6.7C20 2.6 22.2 0.2 26.2 0.2 30.2 0.2 32.3 2.6 32.3 6.7L32.3 20.2C32.3 24.3 30.2 26.7 26.2 26.7 22.2 26.7 20 24.3 20 20.2L20 6.7 20 6.7ZM24.1 20.4C24.1 22.3 24.9 23 26.2 23 27.5 23 28.3 22.3 28.3 20.4L28.3 6.5C28.3 4.6 27.5 3.9 26.2 3.9 24.9 3.9 24.1 4.6 24.1 6.5L24.1 20.4 24.1 20.4ZM50.4 0.2C54.3 0.2 56.3 2.6 56.3 6.7L56.3 7.5 52.5 7.5 52.5 6.5C52.5 4.6 51.8 3.9 50.5 3.9 49.2 3.9 48.4 4.6 48.4 6.5 48.4 11.8 56.4 12.8 56.4 20.2 56.4 24.3 54.3 26.7 50.3 26.7 46.3 26.7 44.3 24.3 44.3 20.2L44.3 18.6 48.1 18.6 48.1 20.4C48.1 22.3 48.9 22.9 50.2 22.9 51.5 22.9 52.3 22.3 52.3 20.4 52.3 15.1 44.4 14.1 44.4 6.7 44.4 2.6 46.4 0.2 50.4 0.2M72.5 26.4L68.4 26.4 68.4 0.5 72.5 0.5 72.5 11.6 77.1 11.6 77.1 0.5 81.2 0.5 81.2 26.4 77.1 26.4 77.1 15.3 72.5 15.3 72.5 26.4M121.6 6.8L121.6 9 120 9 120 6.7C120 4 118.9 1.9 116.1 1.9 113.3 1.9 112.2 4 112.2 6.7L112.2 20.2C112.2 22.9 113.3 25 116.1 25 118.9 25 120 22.9 120 20.2L120 17.1 121.6 17.1 121.6 20.1C121.6 23.8 120 26.6 116.1 26.6 112.1 26.6 110.5 23.8 110.5 20.1L110.5 6.8C110.5 3.1 112.1 0.3 116.1 0.3 120 0.3 121.6 3.1 121.6 6.8M134 6.8C134 3.1 135.8 0.3 139.7 0.3 143.7 0.3 145.4 3.1 145.4 6.8L145.4 20.1C145.4 23.8 143.7 26.6 139.7 26.6 135.8 26.6 134 23.8 134 20.1L134 6.8 134 6.8ZM135.7 20.2C135.7 23 136.8 25 139.7 25 142.5 25 143.7 23 143.7 20.2L143.7 6.7C143.7 3.9 142.5 1.9 139.7 1.9 136.8 1.9 135.7 3.9 135.7 6.7L135.7 20.2 135.7 20.2ZM159.5 26.4L157.9 26.4 157.9 0.5 160.1 0.5 167.9 22.3 167.9 0.5 169.4 0.5 169.4 26.4 167.6 26.4 159.5 3.3 159.5 26.4M182.1 26.4L182.1 0.5 183.8 0.5 183.8 24.8 191.9 24.8 191.9 26.4 182.1 26.4M213 12.5L213 14 205.9 14 205.9 24.8 214.4 24.8 214.4 26.4 204.2 26.4 204.2 0.5 214.4 0.5 214.4 2.1 205.9 2.1 205.9 12.5 213 12.5M232.4 16.4L226.6 0.5 228.4 0.5 233.4 14.1 238.3 0.5 240 0.5 234.1 16.4 234.1 26.4 232.4 26.4 232.4 16.4"/>
      </g>
    </g>
  </g>
</svg>